first trial
nRows=13
nColumns=38

# SIMM Motion File Header:
name Sujet_02_velo_80.mvnx
datacolumns 38
datarows 13
otherdata 1
range 0.0000 0.2000
endheader
time pelvis_tilt  pelvis_list  pelvis_rotation  pelvis_tx  pelvis_ty  pelvis_tz  hip_flexion_r  hip_adduction_r  hip_rotation_r  knee_angle_r  ankle_angle_r  subtalar_angle_r  mtp_angle_r  hip_flexion_l  hip_adduction_l  hip_rotation_l  knee_angle_l  ankle_angle_l  subtalar_angle_l  mtp_angle_l  lumbar_extension  lumbar_bending  lumbar_rotation  arm_flex_r  arm_add_r  arm_rot_r  elbow_flex_r  pro_sup_r  wrist_flex_r  wrist_dev_r  arm_flex_l  arm_add_l  arm_rot_l  elbow_flex_l  pro_sup_l  wrist_flex_l  wrist_dev_l
0.0000	0.9853	-0.9688	89.1860	-0.8221	0.2419	1.1892	66.8367	-10.3861	-3.6310	97.4150	8.8758	-5.9030	-21.2255	36.2180	-3.8328	-7.7299	54.3413	-20.1081	-9.9369	-36.7473	-25.5944	4.4333	3.3082	82.0219	-17.9119	46.5460	14.7894	97.2559	-15.3913	-4.5592	93.6773	1.2176	34.7486	0.9202	87.6957	-3.7555	5.2103	
0.0160	1.1415	-0.8508	89.1656	-0.8257	0.2566	1.2045	65.1083	-10.2710	-3.9038	93.3643	9.3074	-6.0944	-18.3153	37.2072	-3.6869	-7.7549	58.2788	-19.6316	-10.1955	-38.9943	-25.5453	4.4097	3.2335	82.0697	-18.0006	46.7206	14.7877	97.1834	-15.4796	-4.5835	93.7260	1.3445	34.5519	0.8014	87.7990	-3.5951	5.2146	
0.0330	1.2976	-0.7329	89.1448	-0.8292	0.2712	1.2198	63.3809	-10.1521	-4.1741	89.3159	9.7386	-6.2907	-15.4047	38.1963	-3.5431	-7.7841	62.2217	-19.1582	-10.4676	-41.2537	-25.4961	4.3857	3.1590	82.1175	-18.0890	46.8954	14.7861	97.1109	-15.5676	-4.6075	93.7747	1.4712	34.3549	0.6829	87.9023	-3.4343	5.2195	
0.0500	1.4451	-0.6087	89.1831	-0.8327	0.2865	1.2350	61.7114	-10.0256	-4.4679	85.4169	10.0578	-6.4949	-12.6964	39.4137	-3.3995	-7.6058	66.2559	-18.8693	-10.6801	-43.5772	-25.4771	4.3610	3.0808	82.1663	-18.1124	47.0546	14.6831	97.0117	-15.6279	-4.6451	93.8043	1.5877	34.1676	0.5651	88.0258	-3.3367	5.1909	
0.0660	1.5701	-0.4598	89.3051	-0.8362	0.3027	1.2501	60.2158	-9.8955	-4.8052	81.8771	10.3408	-6.7200	-10.2208	40.9716	-3.2258	-7.0927	70.4765	-18.8862	-10.8169	-46.0866	-25.5069	4.3304	2.9995	82.2062	-18.0088	47.1939	14.4127	96.8640	-15.6431	-4.7003	93.8019	1.6944	33.9470	0.4511	88.1958	-3.3444	5.1037	
0.0830	1.6870	-0.3052	89.4861	-0.8396	0.3195	1.2651	58.7791	-9.7547	-5.1709	78.4871	10.5064	-6.9303	-7.9509	42.7575	-3.0255	-6.3815	74.7825	-19.0845	-10.8890	-48.6594	-25.5672	4.2995	2.9142	82.2472	-17.8404	47.3169	14.0410	96.6896	-15.6307	-4.7691	93.7802	1.7909	33.7362	0.3370	88.3863	-3.4157	4.9825	
0.1000	1.8291	-0.1943	89.7116	-0.8428	0.3364	1.2797	57.1118	-9.5787	-5.5393	74.7650	10.2115	-7.0582	-6.0023	44.6626	-2.8448	-5.6554	78.9674	-19.2740	-10.8642	-50.9777	-25.6325	4.2835	2.8200	82.3203	-17.7293	47.4204	13.6640	96.5279	-15.6160	-4.8536	93.7582	1.8663	33.6741	0.2129	88.5391	-3.4877	4.8688	
0.1160	2.0056	-0.1765	89.9931	-0.8456	0.3534	1.2937	55.1032	-9.3268	-5.8622	70.5585	9.3918	-7.0515	-4.3793	46.6843	-2.7329	-4.9523	83.0274	-19.4196	-10.7002	-52.9976	-25.6964	4.3057	2.7191	82.4476	-17.7292	47.5117	13.2763	96.3809	-15.5934	-4.9529	93.7614	1.9125	33.9087	0.0416	88.5592	-3.5471	4.7651	
0.1330	2.2067	-0.2033	-89.6804	-0.8482	0.3707	1.3074	52.8663	-9.0282	-6.1850	66.0213	8.1173	-6.9707	-3.0756	48.8265	-2.6265	-4.2317	86.9665	-19.5512	-10.4448	-54.7588	-25.7653	4.3426	2.6094	82.6069	-17.7868	47.5840	12.8825	96.2457	-15.5689	-5.0679	93.7634	1.9380	34.2919	-0.1396	88.5409	-3.6066	4.6691	
0.1500	2.4384	-0.1765	-89.3592	-0.8509	0.3877	1.3205	50.4460	-8.7607	-6.6256	61.1311	6.2485	-6.9277	-2.1883	50.9889	-2.4240	-3.5597	90.5934	-19.5824	-10.1887	-56.0618	-25.8344	4.3389	2.4789	82.7623	-17.8638	47.6124	12.5937	96.1545	-15.5844	-5.2043	93.7059	1.9554	34.5189	-0.2284	88.7092	-3.6429	4.6153	
0.1660	2.7249	-0.0535	-89.0449	-0.8536	0.4044	1.3328	47.8140	-8.5693	-7.3247	55.3391	3.3215	-6.9863	-1.6492	53.1417	-2.1126	-2.9833	93.8610	-19.5034	-9.8465	-56.8480	-25.9024	4.2672	2.3118	82.9107	-17.9607	47.5701	12.4752	96.1474	-15.6723	-5.3704	93.5071	1.9686	34.4019	-0.1534	89.2447	-3.6350	4.6353	
0.1830	3.0431	0.1225	-88.7367	-0.8565	0.4208	1.3445	45.0002	-8.3897	-8.1529	49.1869	-0.2023	-7.0730	-1.5253	55.3129	-1.7185	-2.4720	96.8172	-19.3315	-9.4890	-57.1673	-25.9714	4.1544	2.1243	83.0547	-18.0768	47.4832	12.4619	96.1852	-15.8007	-5.5588	93.2508	1.9721	34.1275	0.0174	89.9687	-3.6046	4.6971	
0.2000	3.3284	0.3232	-88.4824	-0.8598	0.4371	1.3570	42.1345	-8.1568	-8.8198	44.2917	-3.0744	-7.1079	-2.1164	57.4865	-1.2089	-1.9803	99.4121	-19.0234	-9.4356	-56.9814	-26.0416	4.0264	1.9530	83.1666	-18.1730	47.4056	12.4696	96.1826	-15.9159	-5.7522	93.1268	1.9647	33.9538	0.1729	90.5660	-3.5927	4.7405	
